<svg height="512" viewBox="0 0 512 512" width="512" xmlns="http://www.w3.org/2000/svg"><g id="Fill_out_line" data-name="Fill out line"><path d="m72 152h400v336h-400z" fill="#f6e4a2"/><path d="m360 152h112v240h-112z" fill="#f6d95a"/><path d="m296 392h192v96h-192z" fill="#aacb2a"/><path d="m248 280h112v88h-112z" fill="#f6c633"/><path d="m104 280h80v208h-80z" fill="#b57d4d"/><path d="m32 384h104v104h-104z" fill="#aacb2a"/><path d="m360 152-19.46146 71.3587a22.58339 22.58339 0 0 1 -21.78763 16.6413h-3.8663a22.58338 22.58338 0 0 1 -21.52028-29.43074l18.63567-58.56926z" fill="#d6e06f"/><path d="m312 152-22.99309 72.264a22.58337 22.58337 0 0 1 -21.52028 15.736h-3.24434a22.58338 22.58338 0 0 1 -21.22371-30.30109l20.98142-57.69891z" fill="#aacb2a"/><path d="m264 152-26.5943 73.13433a22.58339 22.58339 0 0 1 -21.2237 14.86567h-2.5433a22.58338 22.58338 0 0 1 -20.902-31.13419l23.2633-56.86581z" fill="#d6e06f"/><path d="m216 152-30.2594 73.96743a22.58339 22.58339 0 0 1 -20.90198 14.03257h-1.76654a22.58338 22.58338 0 0 1 -20.55915-31.92845l25.48707-56.07155z" fill="#aacb2a"/><path d="m168 152-33.98259 74.76169a22.58336 22.58336 0 0 1 -20.55915 13.23831h-.91759a22.58338 22.58338 0 0 1 -20.19918-32.683l27.65851-55.317z" fill="#d6e06f"/><path d="m120 152-37.75811 75.51622a22.58338 22.58338 0 0 1 -20.19919 12.48378h-.00005a22.58338 22.58338 0 0 1 -19.82584-33.39748l29.78319-54.60252z" fill="#aacb2a"/><path d="m192 120h48v32h-48z" fill="#394f5a"/><path d="m336 120h48v32h-48z" fill="#394f5a"/><path d="m144 24h256v96h-256z" fill="#92d4ef"/><path d="m400 24h32v96h-32z" fill="#37a6cb"/><path d="m488 384h-8v-232a8.00008 8.00008 0 0 0 -8-8h-80v-16h40a8.00008 8.00008 0 0 0 8-8v-96a8.00008 8.00008 0 0 0 -8-8h-288a8.00008 8.00008 0 0 0 -8 8v96a8.00008 8.00008 0 0 0 8 8h40v16h-112a7.99877 7.99877 0 0 0 -7.02295 4.16895l-29.7832 54.60253a30.58341 30.58341 0 0 0 26.84863 45.22852c.65692 0 1.30878-.02734 1.95752-.06787v128.06787h-32a8.00008 8.00008 0 0 0 -8 8v104a8.00008 8.00008 0 0 0 8 8h456a8.00008 8.00008 0 0 0 8-8v-96a8.00008 8.00008 0 0 0 -8-8zm-24 0h-96v-224h96zm-112-24h-96v-72h96zm24-216h-32v-16h32zm-140.5 62.96484-.00458.01368-5.60772 15.42187a14.62833 14.62833 0 0 1 -13.70557 9.59961h-2.54346a14.58325 14.58325 0 0 1 -13.49756-20.10449h-.00006l21.2298-51.89551h31.20727l-17.07769 46.96484zm-85.7041 4.417 23.35528-51.38184h30.93256l-25.74731 62.93848a14.53086 14.53086 0 0 1 -13.49805 9.06152h-1.76611a14.58342 14.58342 0 0 1 -13.27637-20.61816zm178.2041-83.38184v16h-80v-16zm-77.46326 84.43506 19.06708-52.43506h31.45532l-19.67584 61.83789a14.53239 14.53239 0 0 1 -13.89648 10.16211h-3.24463a14.58242 14.58242 0 0 1 -13.70545-19.56494zm50.451.56006 16.86217-52.99512h31.676l-16.70557 61.25293a14.615 14.615 0 0 1 -14.06934 10.74707h-3.86621a14.58348 14.58348 0 0 1 -13.897-19.00488zm123.01226-100.99512h-16v-80h16zm-272-80h240v80h-240zm48 96h32v16h-32zm-44.42389 32-20.34611 44.761-.00049-.00025-.00683.01636-8.48828 18.67407a14.61309 14.61309 0 0 1 -13.2759 8.54882h-.918a14.583 14.583 0 0 1 -13.044-21.10449l25.44784-50.89551zm-106.07367 64.86133a14.458 14.458 0 0 1 -.26269-14.42774l27.50925-50.43359h30.30664l-31.96921 63.93848a14.58356 14.58356 0 0 1 -25.584.92285zm37.79688 9.80249a30.36255 30.36255 0 0 0 25.24121 13.33618h.918a30.64858 30.64858 0 0 0 24.80059-12.71851 30.4444 30.4444 0 0 0 24.81315 12.71851h1.76611a30.445 30.445 0 0 0 24.39825-12.15649 30.52561 30.52561 0 0 0 24.40204 12.15649h2.54346a30.67931 30.67931 0 0 0 24.02057-11.68506 30.60742 30.60742 0 0 0 24.03949 11.68506h3.24463a30.45983 30.45983 0 0 0 23.70141-11.25513 30.24834 30.24834 0 0 0 23.69654 11.25513h3.86623a30.6512 30.6512 0 0 0 29.50586-22.53711l3.74314-13.72489v60.262h-104a8.00008 8.00008 0 0 0 -8 8v88a8.00008 8.00008 0 0 0 8 8h104v8h-56a8.00008 8.00008 0 0 0 -8 8v88h-96v-200a8.00008 8.00008 0 0 0 -8-8h-80a8.00008 8.00008 0 0 0 -8 8v96h-16v-133.79785a30.4364 30.4364 0 0 0 7.29932-7.53833zm48.70068 141.33618h-24v-88h64v192h-32v-96a8.00008 8.00008 0 0 0 -8-8zm-96 16h88v88h-88zm440 88h-176v-80h176z"/><circle cx="160" cy="376" r="8"/></g></svg>