<svg width="966" height="834" viewBox="0 0 966 834" fill="none" xmlns="http://www.w3.org/2000/svg">
<g filter="url(#filter0_i)">
<path d="M965.106 594.453C965.106 749.455 661.223 631.11 408 631.11C154.777 631.11 0 945.455 0 790.452C0 635.449 687.213 399.954 241.106 83.6116C-205 -232.73 965.106 439.45 965.106 594.453Z" fill="#384C78"/>
</g>
<g filter="url(#filter1_d)">
<path d="M788.618 456.233C733.53 554.17 579.641 683.62 369.806 565.591C159.971 447.561 568.936 509.289 624.025 411.353C679.113 313.416 230.132 322.828 439.967 440.858C649.802 558.888 843.706 358.297 788.618 456.233Z" fill="#552836"/>
<path d="M788.182 455.988C760.682 504.879 708.515 561.638 637.05 591.438C565.609 621.228 474.839 624.097 370.051 565.155C343.83 550.405 327.33 538.493 318.597 528.759C314.231 523.892 311.842 519.61 311.118 515.826C310.398 512.069 311.31 508.758 313.65 505.778C316.005 502.779 319.818 500.106 324.905 497.695C329.987 495.286 336.305 493.156 343.632 491.227C358.286 487.367 376.915 484.323 397.638 481.432C407.328 480.08 417.475 478.762 427.883 477.411C451.199 474.383 475.826 471.184 499.564 467.053C582.393 492.383 658.949 475.279 713.8 456.554C729.978 451.031 744.273 445.366 756.28 440.607C756.866 440.374 757.448 440.144 758.023 439.916C770.399 435.013 780.193 431.183 787.003 429.599C790.418 428.804 793 428.597 794.757 429.046C795.622 429.267 796.264 429.641 796.715 430.163C797.166 430.685 797.461 431.395 797.563 432.348C797.769 434.281 797.17 437.109 795.621 441.034C794.078 444.943 791.621 449.875 788.182 455.988ZM531.443 459.684C521.167 462.044 510.493 464.133 499.63 466.027C480.104 460.038 460.231 451.683 440.212 440.423C414.002 425.68 398.147 412.668 390.3 401.4C386.381 395.773 384.476 390.605 384.253 385.89C384.03 381.184 385.48 376.884 388.351 372.978C394.114 365.137 405.596 358.894 420.662 354.309C435.707 349.731 454.24 346.832 473.996 345.617C513.518 343.187 557.847 347.503 588.83 358.519C604.332 364.03 616.418 371.193 622.924 379.959C626.17 384.332 628.024 389.099 628.231 394.268C628.438 399.439 626.997 405.049 623.589 411.107C616.772 423.226 604.457 432.916 588.457 440.809C572.461 448.7 552.829 454.773 531.443 459.684Z" stroke="#46A9A3" style="mix-blend-mode:hue"/>
</g>
<defs>
<filter id="filter0_i" x="0" y="0" width="980.106" height="853.406" filterUnits="userSpaceOnUse" color-interpolation-filters="sRGB">
<feFlood flood-opacity="0" result="BackgroundImageFix"/>
<feBlend mode="normal" in="SourceGraphic" in2="BackgroundImageFix" result="shape"/>
<feColorMatrix in="SourceAlpha" type="matrix" values="0 0 0 0 0 0 0 0 0 0 0 0 0 0 0 0 0 0 127 0" result="hardAlpha"/>
<feOffset dx="15" dy="20"/>
<feGaussianBlur stdDeviation="17.5"/>
<feComposite in2="hardAlpha" operator="arithmetic" k2="-1" k3="1"/>
<feColorMatrix type="matrix" values="0 0 0 0 0 0 0 0 0 0 0 0 0 0 0 0 0 0 0.25 0"/>
<feBlend mode="normal" in2="shape" result="effect1_innerShadow"/>
</filter>
<filter id="filter1_d" x="301" y="241" width="524.038" height="535.263" filterUnits="userSpaceOnUse" color-interpolation-filters="sRGB">
<feFlood flood-opacity="0" result="BackgroundImageFix"/>
<feColorMatrix in="SourceAlpha" type="matrix" values="0 0 0 0 0 0 0 0 0 0 0 0 0 0 0 0 0 0 127 0"/>
<feOffset dx="19" dy="54"/>
<feGaussianBlur stdDeviation="2"/>
<feColorMatrix type="matrix" values="0 0 0 0 0 0 0 0 0 0 0 0 0 0 0 0 0 0 0.25 0"/>
<feBlend mode="normal" in2="BackgroundImageFix" result="effect1_dropShadow"/>
<feBlend mode="normal" in="SourceGraphic" in2="effect1_dropShadow" result="shape"/>
</filter>
</defs>
</svg>
