<svg width="1156" height="1348" viewBox="0 0 1156 1348" fill="none" xmlns="http://www.w3.org/2000/svg">
<g filter="url(#filter0_i)">
<path d="M12.5716 225.592C17.3084 244.928 33.8031 259.121 53.6294 260.921L140.636 268.82C199.797 274.191 242.28 328.188 233.579 386.952V386.952C224.247 449.973 273.572 506.361 337.274 505.497L789.919 499.357L553.017 482.045L306.896 458.607L165.477 433.033C157.743 431.634 150.34 428.794 143.654 424.661V424.661C81.1038 385.991 124.679 289.799 194.998 311.32L780.71 490.576L128.414 221.623C119.135 217.797 111.244 211.233 105.792 202.806L96.9794 189.183C68.4361 145.061 0.0679371 174.551 12.5716 225.592V225.592Z" fill="#578940"/>
</g>
<defs>
<filter id="filter0_i" x="-14.5809" y="-14.2628" width="804.5" height="694.973" filterUnits="userSpaceOnUse" color-interpolation-filters="sRGB">
<feFlood flood-opacity="0" result="BackgroundImageFix"/>
<feBlend mode="normal" in="SourceGraphic" in2="BackgroundImageFix" result="shape"/>
<feColorMatrix in="SourceAlpha" type="matrix" values="0 0 0 0 0 0 0 0 0 0 0 0 0 0 0 0 0 0 127 0" result="hardAlpha"/>
<feOffset dx="-25" dy="-25"/>
<feGaussianBlur stdDeviation="7.5"/>
<feComposite in2="hardAlpha" operator="arithmetic" k2="-1" k3="1"/>
<feColorMatrix type="matrix" values="0 0 0 0 0 0 0 0 0 0 0 0 0 0 0 0 0 0 0.25 0"/>
<feBlend mode="normal" in2="shape" result="effect1_innerShadow"/>
</filter>
</defs>
</svg>
