<?xml version="1.0" encoding="iso-8859-1"?>
<!-- Generator: Adobe Illustrator 19.0.0, SVG Export Plug-In . SVG Version: 6.00 Build 0)  -->
<svg version="1.1" id="Layer_1" xmlns="http://www.w3.org/2000/svg" xmlns:xlink="http://www.w3.org/1999/xlink" x="0px" y="0px"
	 viewBox="0 0 473.935 473.935" style="enable-background:new 0 0 473.935 473.935;" xml:space="preserve">
<circle style="fill:#E84849;" cx="236.967" cy="236.967" r="236.967"/>
<rect x="132.048" y="171.785" style="fill:#E8E4AA;" width="215.003" height="164.639"/>
<path style="fill:#BDB36D;" d="M311.118,329.652H252.26v-83.767c0-7.85,6.455-14.223,14.421-14.223h30.028
	c7.966,0,14.413,6.372,14.413,14.223v83.767H311.118z"/>
<g>
	<path style="fill:#CCC375;" d="M306.363,328.971h-49.339v-80.856c0-6.571,5.414-11.921,12.086-11.921h25.164
		c6.672,0,12.086,5.351,12.086,11.921v80.856H306.363z"/>
	<path style="fill:#CCC375;" d="M202.008,231.662h-31.016c-8.221,0-14.889,6.533-14.889,14.578v4.969v6.286v4.947
		c0,8.052,6.664,14.578,14.889,14.578H202c8.221,0,14.889-6.526,14.889-14.578v-4.947v-6.286v-4.969
		C216.889,238.198,210.221,231.662,202.008,231.662z"/>
</g>
<g>
	<path style="fill:#A09592;" d="M239.792,103.457c-0.606,0-1.205,0-1.811,0c0.569,2.069,0.906,4.217,0.906,6.432
		C238.887,107.674,239.22,105.526,239.792,103.457z"/>
	<path style="fill:#A09592;" d="M174.809,103.457c-0.606,0-1.205,0-1.804,0c0.569,2.069,0.906,4.217,0.906,6.432
		C173.907,107.674,174.244,105.526,174.809,103.457z"/>
	<path style="fill:#A09592;" d="M304.769,103.457c-0.606,0-1.19,0-1.811,0c0.569,2.069,0.906,4.217,0.906,6.432
		C303.863,107.674,304.2,105.526,304.769,103.457z"/>
</g>
<path style="fill:#C74A39;" d="M173.002,103.457c-8.872,0-16.4,0-21.837,0c-32.602,0-42.234,74.42-42.234,74.42v9.575
	c0,15.405,14.544,27.903,32.486,27.903c9.59,0,18.181-3.596,24.138-9.268c5.175-4.939,8.352-11.461,8.352-18.634v-77.563
	C173.907,107.674,173.574,105.526,173.002,103.457z"/>
<path style="fill:#D5C7C3;" d="M237.978,103.457c-22.705,0-45.463,0-63.173,0c-0.561,2.069-0.898,4.217-0.898,6.432v77.564
	c0,7.177,3.181,13.695,8.352,18.634c5.957,5.673,14.544,9.268,24.131,9.268c9.594,0,18.181-3.596,24.138-9.268
	c5.175-4.939,8.352-11.461,8.352-18.634v-77.564C238.887,107.674,238.55,105.526,237.978,103.457z"/>
<path style="fill:#C74A39;" d="M302.958,103.457c-17.22,0-40.086,0-63.165,0c-0.569,2.069-0.905,4.217-0.905,6.432v77.564
	c0,7.177,3.181,13.695,8.352,18.634c5.957,5.673,14.544,9.268,24.131,9.268c9.594,0,18.181-3.596,24.131-9.268
	c5.182-4.939,8.359-11.461,8.359-18.634v-77.564C303.863,107.674,303.526,105.526,302.958,103.457z"/>
<path style="fill:#D5C7C3;" d="M368.839,167.419c-5.86-20.486-21.201-63.962-45.867-63.962c-4.647,0-10.896,0-18.204,0
	c-0.569,2.069-0.905,4.217-0.905,6.432v77.564c0,7.177,3.181,13.695,8.352,18.634c5.957,5.673,14.544,9.268,24.131,9.268
	c16.913,0,30.802-11.102,32.34-25.287C370.471,186.367,370.647,173.731,368.839,167.419z"/>
<path style="fill:#DCD99D;" d="M381.864,343.062c0,8.09-6.563,14.645-14.653,14.645H114.828c-8.09,0-14.645-6.556-14.645-14.645l0,0
	c0-8.09,6.556-14.645,14.645-14.645h252.38C375.301,328.417,381.864,334.972,381.864,343.062L381.864,343.062z"/>
<g>
</g>
<g>
</g>
<g>
</g>
<g>
</g>
<g>
</g>
<g>
</g>
<g>
</g>
<g>
</g>
<g>
</g>
<g>
</g>
<g>
</g>
<g>
</g>
<g>
</g>
<g>
</g>
<g>
</g>
</svg>
