<?xml version="1.0" encoding="iso-8859-1"?>
<!-- Generator: Adobe Illustrator 19.0.0, SVG Export Plug-In . SVG Version: 6.00 Build 0)  -->
<svg version="1.1" id="Capa_1" xmlns="http://www.w3.org/2000/svg" xmlns:xlink="http://www.w3.org/1999/xlink" x="0px" y="0px"
	 viewBox="0 0 512 512" style="enable-background:new 0 0 512 512;" xml:space="preserve">
<path style="fill:#6E6E6E;" d="M166,104.667c-8.291,0-15-6.709-15-15V15c0-8.291,6.709-15,15-15s15,6.709,15,15v74.667
	C181,97.958,174.291,104.667,166,104.667z"/>
<path style="fill:#5A5A5A;" d="M346,104.667c-8.291,0-15-6.709-15-15V15c0-8.291,6.709-15,15-15s15,6.709,15,15v74.667
	C361,97.958,354.291,104.667,346,104.667z"/>
<path style="fill:#ED3C94;" d="M363.401,86.199C350.2,70.3,330.7,61,310,61c-21.899,0-41.4,10.199-54,26.1
	C243.401,71.199,223.9,61,202,61c-20.7,0-40.201,9.3-53.401,25.199C135.399,102.4,130.3,123.1,134.2,143.5L151,241l105,30l105-30
	l16.8-97.5C381.7,123.1,376.601,102.4,363.401,86.199z"/>
<path style="fill:#EB1D83;" d="M377.8,143.5L361,241l-105,30V87.1C268.599,71.199,288.1,61,310,61c20.7,0,40.201,9.3,53.401,25.199
	C376.601,102.4,381.7,123.1,377.8,143.5z"/>
<path style="fill:#ED3C94;" d="M450.099,472.4c-1.8,4.2-4.799,7.2-9,8.699C437.8,482.3,356.8,512,256,512S74.2,482.3,70.901,481.099
	c-4.2-1.5-7.2-4.499-9-8.699c-1.501-3.9-1.201-8.401,0.599-12.001L151,301l105-30l105,30l88.5,159.399
	C451.3,463.999,451.601,468.5,450.099,472.4z"/>
<path style="fill:#EB1D83;" d="M450.099,472.4c-1.8,4.2-4.799,7.2-9,8.699C437.8,482.3,356.8,512,256,512V271l105,30l88.5,159.399
	C451.3,463.999,451.601,468.5,450.099,472.4z"/>
<path style="fill:#BABAC0;" d="M295.492,352.709l-30-60c-3.706-7.412-0.703-16.421,6.709-20.127
	c7.412-3.662,16.421-0.688,20.127,6.709l30,60c3.706,7.412,0.703,16.421-6.709,20.127
	C308.132,363.136,299.18,360.064,295.492,352.709z"/>
<path style="fill:#D3D3D8;" d="M196.381,359.418c-7.412-3.706-10.415-12.715-6.709-20.127l30-60
	c3.721-7.397,12.7-10.371,20.127-6.709c7.412,3.706,10.415,12.715,6.709,20.127l-30,60
	C212.817,360.07,203.861,363.132,196.381,359.418z"/>
<rect x="151" y="241" style="fill:#E7E7E7;" width="210" height="60"/>
<rect x="256" y="241" style="fill:#D3D3D8;" width="105" height="60"/>
<g>
</g>
<g>
</g>
<g>
</g>
<g>
</g>
<g>
</g>
<g>
</g>
<g>
</g>
<g>
</g>
<g>
</g>
<g>
</g>
<g>
</g>
<g>
</g>
<g>
</g>
<g>
</g>
<g>
</g>
</svg>
